<svg width="20" height="20" viewBox="0 0 20 20" fill="currentColor" xmlns="http://www.w3.org/2000/svg">
  <g id="icon-info" clip-path="url(#clip0_156_889)">
    <g id="Shape">
      <path
        d="M9.99992 9.16658C10.4602 9.16658 10.8333 9.53968 10.8333 9.99992V13.3333C10.8333 13.7935 10.4602 14.1666 9.99992 14.1666C9.53968 14.1666 9.16658 13.7935 9.16658 13.3333V9.99992C9.16658 9.53968 9.53968 9.16658 9.99992 9.16658Z"
        fill="currentColor" />
      <path
        d="M9.99992 5.83325C9.53968 5.83325 9.16658 6.20635 9.16658 6.66658C9.16658 7.12682 9.53968 7.49992 9.99992 7.49992H10.0083C10.4685 7.49992 10.8416 7.12682 10.8416 6.66658C10.8416 6.20635 10.4685 5.83325 10.0083 5.83325H9.99992Z"
        fill="currentColor" />
      <path fill-rule="evenodd" clip-rule="evenodd"
        d="M0.833252 9.99992C0.833252 4.93731 4.93731 0.833252 9.99992 0.833252C15.0625 0.833252 19.1666 4.93731 19.1666 9.99992C19.1666 15.0625 15.0625 19.1666 9.99992 19.1666C4.93731 19.1666 0.833252 15.0625 0.833252 9.99992ZM9.99992 2.49992C5.85778 2.49992 2.49992 5.85778 2.49992 9.99992C2.49992 14.1421 5.85778 17.4999 9.99992 17.4999C14.1421 17.4999 17.4999 14.1421 17.4999 9.99992C17.4999 5.85778 14.1421 2.49992 9.99992 2.49992Z"
        fill="currentColor" />
    </g>
  </g>
  <defs>
    <clipPath id="clip0_156_889">
      <rect width="20" height="20" fill="currentColor" />
    </clipPath>
  </defs>
</svg>