<svg width="17" height="16" viewBox="0 0 17 16" fill="currentColor" xmlns="http://www.w3.org/2000/svg">
  <g id="Icon Left">
    <g id="Shape">
      <path
        d="M8.49992 4.66665C8.86811 4.66665 9.16659 4.96512 9.16659 5.33331V7.33331H11.1666C11.5348 7.33331 11.8333 7.63179 11.8333 7.99998C11.8333 8.36817 11.5348 8.66665 11.1666 8.66665H9.16659V10.6666C9.16659 11.0348 8.86811 11.3333 8.49992 11.3333C8.13173 11.3333 7.83325 11.0348 7.83325 10.6666V8.66665H5.83325C5.46506 8.66665 5.16659 8.36817 5.16659 7.99998C5.16659 7.63179 5.46506 7.33331 5.83325 7.33331H7.83325V5.33331C7.83325 4.96512 8.13173 4.66665 8.49992 4.66665Z"
        fill="currentColor" />
      <path fill-rule="evenodd" clip-rule="evenodd"
        d="M1.83325 3.33331C1.83325 2.22874 2.72868 1.33331 3.83325 1.33331H13.1666C14.2712 1.33331 15.1666 2.22874 15.1666 3.33331V12.6666C15.1666 13.7712 14.2712 14.6666 13.1666 14.6666H3.83325C2.72868 14.6666 1.83325 13.7712 1.83325 12.6666V3.33331ZM3.83325 2.66665C3.46506 2.66665 3.16659 2.96512 3.16659 3.33331V12.6666C3.16659 13.0348 3.46506 13.3333 3.83325 13.3333H13.1666C13.5348 13.3333 13.8333 13.0348 13.8333 12.6666V3.33331C13.8333 2.96512 13.5348 2.66665 13.1666 2.66665H3.83325Z"
        fill="currentColor" />
    </g>
  </g>
</svg>