<svg width="20" height="20" viewBox="0 0 20 20" fill="none" xmlns="http://www.w3.org/2000/svg">
<g id="Icon Left" clip-path="url(#clip0_268_388)">
<g id="Shape">
<path d="M9.99992 5.83333C10.4602 5.83333 10.8333 6.20642 10.8333 6.66666V9.16666H13.3333C13.7935 9.16666 14.1666 9.53976 14.1666 9.99999C14.1666 10.4602 13.7935 10.8333 13.3333 10.8333H10.8333V13.3333C10.8333 13.7936 10.4602 14.1667 9.99992 14.1667C9.53968 14.1667 9.16658 13.7936 9.16658 13.3333V10.8333H6.66658C6.20635 10.8333 5.83325 10.4602 5.83325 9.99999C5.83325 9.53976 6.20635 9.16666 6.66658 9.16666H9.16658V6.66666C9.16658 6.20642 9.53968 5.83333 9.99992 5.83333Z" fill="#2D3648"/>
<path fill-rule="evenodd" clip-rule="evenodd" d="M0.833252 9.99999C0.833252 4.93738 4.93731 0.833328 9.99992 0.833328C15.0625 0.833328 19.1666 4.93738 19.1666 9.99999C19.1666 15.0626 15.0625 19.1667 9.99992 19.1667C4.93731 19.1667 0.833252 15.0626 0.833252 9.99999ZM9.99992 2.49999C5.85778 2.49999 2.49992 5.85786 2.49992 9.99999C2.49992 14.1421 5.85778 17.5 9.99992 17.5C14.1421 17.5 17.4999 14.1421 17.4999 9.99999C17.4999 5.85786 14.1421 2.49999 9.99992 2.49999Z" fill="#2D3648"/>
</g>
</g>
<defs>
<clipPath id="clip0_268_388">
<rect width="20" height="20" fill="white"/>
</clipPath>
</defs>
</svg>
