<svg width="20" height="20" viewBox="0 0 20 20" fill="currentColor"
  xmlns="http://www.w3.org/2000/svg">
  <g id="arrow / chevron_done">
    <path id="Icon color"
      d="M16.3912 6.2702L8.59518 14.8799C8.52613 14.9568 8.43214 15 8.33408 15C8.23603 15 8.14204 14.9568 8.07299 14.8799L4.10878 10.5019C4.03916 10.4257 4 10.3219 4 10.2136C4 10.1053 4.03916 10.0015 4.10878 9.92525L4.62361 9.35669C4.69266 9.2798 4.78665 9.23656 4.8847 9.23656C4.98276 9.23656 5.07675 9.2798 5.1458 9.35669L8.33041 12.8737L15.3542 5.11683C15.4997 4.96106 15.7309 4.96106 15.8764 5.11683L16.3912 5.69352C16.4608 5.76977 16.5 5.87357 16.5 5.98186C16.5 6.09014 16.4608 6.19395 16.3912 6.2702Z"
      fill="currentColor" />
  </g>
</svg>