<svg width="56" height="56" viewBox="0 0 56 56" fill="currentColor" xmlns="http://www.w3.org/2000/svg">
  <g id="icon-alert-triangle">
    <g id="Shape">
      <path
        d="M28.0001 18.6667C29.2887 18.6667 30.3334 19.7113 30.3334 21V30.3333C30.3334 31.622 29.2887 32.6667 28.0001 32.6667C26.7114 32.6667 25.6667 31.622 25.6667 30.3333V21C25.6667 19.7113 26.7114 18.6667 28.0001 18.6667Z"
        fill="currentColor" />
      <path
        d="M28.0001 37.3333C26.7114 37.3333 25.6667 38.378 25.6667 39.6667C25.6667 40.9553 26.7114 42 28.0001 42H28.0234C29.3121 42 30.3567 40.9553 30.3567 39.6667C30.3567 38.378 29.3121 37.3333 28.0234 37.3333H28.0001Z"
        fill="currentColor" />
      <path fill-rule="evenodd" clip-rule="evenodd"
        d="M24.5659 5.32722C25.6143 4.737 26.7971 4.42693 28.0001 4.42693C29.2032 4.42693 30.386 4.737 31.4343 5.32722C32.4827 5.91745 33.3612 6.7679 33.9851 7.79653L33.9919 7.80761L53.7552 40.801L53.7741 40.8332C54.3853 41.8917 54.7087 43.0917 54.7121 44.314C54.7156 45.5363 54.3989 46.7381 53.7936 47.8C53.1883 48.8619 52.3156 49.7468 51.2621 50.3667C50.2087 50.9865 49.0113 51.3198 47.7891 51.3332L47.7635 51.3335L8.21115 51.3333C6.98894 51.3199 5.79156 50.9865 4.73813 50.3667C3.68469 49.7468 2.81192 48.8619 2.20664 47.8C1.60137 46.7381 1.28469 45.5363 1.28811 44.314C1.29154 43.0917 1.61494 41.8917 2.22615 40.8332L2.24511 40.801L22.0084 7.80763L24.0101 9.00663L22.0151 7.79653C22.6391 6.7679 23.5176 5.91745 24.5659 5.32722ZM26.008 10.2121L6.25973 43.1803C6.06098 43.5298 5.95589 43.9248 5.95476 44.3271C5.95362 44.7345 6.05918 45.1351 6.26094 45.4891C6.4627 45.843 6.75362 46.138 7.10477 46.3446C7.45284 46.5494 7.84805 46.6604 8.25172 46.6667H47.7485C48.1522 46.6604 48.5474 46.5494 48.8955 46.3446C49.2466 46.138 49.5376 45.843 49.7393 45.4891C49.9411 45.1351 50.0466 44.7345 50.0455 44.3271C50.0444 43.9249 49.9393 43.5299 49.7406 43.1804L29.9951 10.2168L29.9923 10.2121C29.7845 9.87136 29.4927 9.58954 29.1449 9.39369C28.7954 9.19695 28.4012 9.09359 28.0001 9.09359C27.5991 9.09359 27.2048 9.19695 26.8554 9.39369C26.5075 9.58954 26.2158 9.87136 26.008 10.2121Z"
        fill="currentColor" />
    </g>
  </g>
</svg>