<svg width="32" height="32" viewBox="0 0 32 32" fill="currentColor" xmlns="http://www.w3.org/2000/svg">
  <g id="icon-x">
    <path id="Shape"
      d="M24.9426 8.94289C25.4633 8.42219 25.4633 7.57797 24.9426 7.05727C24.4219 6.53657 23.5777 6.53657 23.057 7.05727L15.9998 14.1145L8.94265 7.05727C8.42195 6.53657 7.57773 6.53657 7.05703 7.05727C6.53633 7.57797 6.53633 8.42219 7.05703 8.94289L14.1142 16.0001L7.05703 23.0573C6.53633 23.578 6.53633 24.4222 7.05703 24.9429C7.57773 25.4636 8.42195 25.4636 8.94265 24.9429L15.9998 17.8857L23.057 24.9429C23.5777 25.4636 24.4219 25.4636 24.9426 24.9429C25.4633 24.4222 25.4633 23.578 24.9426 23.0573L17.8855 16.0001L24.9426 8.94289Z"
      fill="currentColor" />
  </g>
</svg>